<?xml version="1.0" encoding="UTF-8" standalone="no"?>
<!DOCTYPE svg PUBLIC "-//W3C//DTD SVG 1.1//EN"
 "http://www.w3.org/Graphics/SVG/1.1/DTD/svg11.dtd">
<!-- Generated by graphviz version 2.43.0 (0)
 -->
<!-- Title: %3 Pages: 1 -->
<svg width="1303pt" height="1124pt"
 viewBox="0.00 0.00 1303.37 1124.00" xmlns="http://www.w3.org/2000/svg" xmlns:xlink="http://www.w3.org/1999/xlink">
<g id="graph0" class="graph" transform="scale(1 1) rotate(0) translate(4 1120)">
<title>%3</title>
<polygon fill="white" stroke="transparent" points="-4,4 -4,-1120 1299.37,-1120 1299.37,4 -4,4"/>
<!-- User -->
<g id="node1" class="node">
<title>User</title>
<ellipse fill="none" stroke="black" cx="639.19" cy="-1098" rx="33.29" ry="18"/>
<text text-anchor="middle" x="639.19" y="-1094.3" font-family="Times,serif" font-size="14.00">User</text>
</g>
<!-- PromptKind UI Shell -->
<g id="node2" class="node">
<title>PromptKind UI Shell</title>
<ellipse fill="none" stroke="black" cx="639.19" cy="-1026" rx="107.48" ry="18"/>
<text text-anchor="middle" x="639.19" y="-1022.3" font-family="Times,serif" font-size="14.00">PromptKind UI Shell</text>
</g>
<!-- User&#45;&gt;PromptKind UI Shell -->
<g id="edge1" class="edge">
<title>User&#45;&gt;PromptKind UI Shell</title>
<path fill="none" stroke="black" d="M639.19,-1079.7C639.19,-1071.98 639.19,-1062.71 639.19,-1054.11"/>
<polygon fill="black" stroke="black" points="642.69,-1054.1 639.19,-1044.1 635.69,-1054.1 642.69,-1054.1"/>
</g>
<!-- Agent Interface Layer -->
<g id="node3" class="node">
<title>Agent Interface Layer</title>
<ellipse fill="none" stroke="black" cx="531.19" cy="-954" rx="112.38" ry="18"/>
<text text-anchor="middle" x="531.19" y="-950.3" font-family="Times,serif" font-size="14.00">Agent Interface Layer</text>
</g>
<!-- PromptKind UI Shell&#45;&gt;Agent Interface Layer -->
<g id="edge2" class="edge">
<title>PromptKind UI Shell&#45;&gt;Agent Interface Layer</title>
<path fill="none" stroke="black" d="M613.6,-1008.41C599.31,-999.15 581.31,-987.49 565.79,-977.42"/>
<polygon fill="black" stroke="black" points="567.27,-974.21 556.98,-971.71 563.47,-980.09 567.27,-974.21"/>
</g>
<!-- Media Renderer -->
<g id="node7" class="node">
<title>Media Renderer</title>
<ellipse fill="none" stroke="black" cx="921.19" cy="-954" rx="85.59" ry="18"/>
<text text-anchor="middle" x="921.19" y="-950.3" font-family="Times,serif" font-size="14.00">Media Renderer</text>
</g>
<!-- PromptKind UI Shell&#45;&gt;Media Renderer -->
<g id="edge6" class="edge">
<title>PromptKind UI Shell&#45;&gt;Media Renderer</title>
<path fill="none" stroke="black" d="M696.6,-1010.75C743.61,-999.08 810.01,-982.6 858.42,-970.58"/>
<polygon fill="black" stroke="black" points="859.29,-973.97 868.16,-968.17 857.61,-967.18 859.29,-973.97"/>
</g>
<!-- Persona Engine -->
<g id="node4" class="node">
<title>Persona Engine</title>
<ellipse fill="none" stroke="black" cx="83.19" cy="-882" rx="83.39" ry="18"/>
<text text-anchor="middle" x="83.19" y="-878.3" font-family="Times,serif" font-size="14.00">Persona Engine</text>
</g>
<!-- Agent Interface Layer&#45;&gt;Persona Engine -->
<g id="edge3" class="edge">
<title>Agent Interface Layer&#45;&gt;Persona Engine</title>
<path fill="none" stroke="black" d="M449.65,-941.6C377.62,-931.34 269.79,-915.54 176.19,-900 169.07,-898.82 161.65,-897.54 154.24,-896.23"/>
<polygon fill="black" stroke="black" points="154.63,-892.75 144.17,-894.44 153.41,-899.64 154.63,-892.75"/>
</g>
<!-- UI/UX Preferences -->
<g id="node5" class="node">
<title>UI/UX Preferences</title>
<ellipse fill="none" stroke="black" cx="282.19" cy="-882" rx="97.48" ry="18"/>
<text text-anchor="middle" x="282.19" y="-878.3" font-family="Times,serif" font-size="14.00">UI/UX Preferences</text>
</g>
<!-- Agent Interface Layer&#45;&gt;UI/UX Preferences -->
<g id="edge4" class="edge">
<title>Agent Interface Layer&#45;&gt;UI/UX Preferences</title>
<path fill="none" stroke="black" d="M478.08,-938.07C438.54,-926.95 384.5,-911.76 343.19,-900.15"/>
<polygon fill="black" stroke="black" points="344.09,-896.77 333.52,-897.43 342.2,-903.5 344.09,-896.77"/>
</g>
<!-- Creative Expression Layer -->
<g id="node6" class="node">
<title>Creative Expression Layer</title>
<ellipse fill="none" stroke="black" cx="531.19" cy="-882" rx="133.78" ry="18"/>
<text text-anchor="middle" x="531.19" y="-878.3" font-family="Times,serif" font-size="14.00">Creative Expression Layer</text>
</g>
<!-- Agent Interface Layer&#45;&gt;Creative Expression Layer -->
<g id="edge5" class="edge">
<title>Agent Interface Layer&#45;&gt;Creative Expression Layer</title>
<path fill="none" stroke="black" d="M531.19,-935.7C531.19,-927.98 531.19,-918.71 531.19,-910.11"/>
<polygon fill="black" stroke="black" points="534.69,-910.1 531.19,-900.1 527.69,-910.1 534.69,-910.1"/>
</g>
<!-- Agent Coordinator -->
<g id="node8" class="node">
<title>Agent Coordinator</title>
<ellipse fill="none" stroke="black" cx="780.19" cy="-882" rx="96.68" ry="18"/>
<text text-anchor="middle" x="780.19" y="-878.3" font-family="Times,serif" font-size="14.00">Agent Coordinator</text>
</g>
<!-- Agent Interface Layer&#45;&gt;Agent Coordinator -->
<g id="edge7" class="edge">
<title>Agent Interface Layer&#45;&gt;Agent Coordinator</title>
<path fill="none" stroke="black" d="M584.3,-938.07C623.84,-926.95 677.88,-911.76 719.19,-900.15"/>
<polygon fill="black" stroke="black" points="720.19,-903.5 728.87,-897.43 718.29,-896.77 720.19,-903.5"/>
</g>
<!-- Annotation, Media Tools, Output Stylizer -->
<g id="node25" class="node">
<title>Annotation, Media Tools, Output Stylizer</title>
<ellipse fill="none" stroke="black" cx="1095.19" cy="-882" rx="200.36" ry="18"/>
<text text-anchor="middle" x="1095.19" y="-878.3" font-family="Times,serif" font-size="14.00">Annotation, Media Tools, Output Stylizer</text>
</g>
<!-- Media Renderer&#45;&gt;Annotation, Media Tools, Output Stylizer -->
<g id="edge24" class="edge">
<title>Media Renderer&#45;&gt;Annotation, Media Tools, Output Stylizer</title>
<path fill="none" stroke="black" d="M958.95,-937.81C983.98,-927.74 1017.13,-914.41 1044.46,-903.41"/>
<polygon fill="black" stroke="black" points="1045.89,-906.61 1053.86,-899.63 1043.28,-900.11 1045.89,-906.61"/>
</g>
<!-- Local Agent Pool -->
<g id="node9" class="node">
<title>Local Agent Pool</title>
<ellipse fill="none" stroke="black" cx="655.19" cy="-810" rx="87.99" ry="18"/>
<text text-anchor="middle" x="655.19" y="-806.3" font-family="Times,serif" font-size="14.00">Local Agent Pool</text>
</g>
<!-- Agent Coordinator&#45;&gt;Local Agent Pool -->
<g id="edge8" class="edge">
<title>Agent Coordinator&#45;&gt;Local Agent Pool</title>
<path fill="none" stroke="black" d="M751.2,-864.76C733.85,-855.05 711.6,-842.59 692.89,-832.11"/>
<polygon fill="black" stroke="black" points="694.46,-828.98 684.03,-827.15 691.04,-835.09 694.46,-828.98"/>
</g>
<!-- Swarm Coordinator -->
<g id="node10" class="node">
<title>Swarm Coordinator</title>
<ellipse fill="none" stroke="black" cx="904.19" cy="-810" rx="102.08" ry="18"/>
<text text-anchor="middle" x="904.19" y="-806.3" font-family="Times,serif" font-size="14.00">Swarm Coordinator</text>
</g>
<!-- Agent Coordinator&#45;&gt;Swarm Coordinator -->
<g id="edge9" class="edge">
<title>Agent Coordinator&#45;&gt;Swarm Coordinator</title>
<path fill="none" stroke="black" d="M808.95,-864.76C826.04,-855.12 847.92,-842.77 866.4,-832.34"/>
<polygon fill="black" stroke="black" points="868.17,-835.35 875.16,-827.39 864.73,-829.26 868.17,-835.35"/>
</g>
<!-- Task Execution Engine -->
<g id="node11" class="node">
<title>Task Execution Engine</title>
<ellipse fill="none" stroke="black" cx="385.19" cy="-738" rx="116.18" ry="18"/>
<text text-anchor="middle" x="385.19" y="-734.3" font-family="Times,serif" font-size="14.00">Task Execution Engine</text>
</g>
<!-- Local Agent Pool&#45;&gt;Task Execution Engine -->
<g id="edge10" class="edge">
<title>Local Agent Pool&#45;&gt;Task Execution Engine</title>
<path fill="none" stroke="black" d="M603.13,-795.5C560.07,-784.34 498.63,-768.41 451.95,-756.31"/>
<polygon fill="black" stroke="black" points="452.78,-752.91 442.23,-753.79 451.03,-759.68 452.78,-752.91"/>
</g>
<!-- Short&#45;Term Memory Cache -->
<g id="node12" class="node">
<title>Short&#45;Term Memory Cache</title>
<ellipse fill="none" stroke="black" cx="655.19" cy="-738" rx="135.68" ry="18"/>
<text text-anchor="middle" x="655.19" y="-734.3" font-family="Times,serif" font-size="14.00">Short&#45;Term Memory Cache</text>
</g>
<!-- Local Agent Pool&#45;&gt;Short&#45;Term Memory Cache -->
<g id="edge11" class="edge">
<title>Local Agent Pool&#45;&gt;Short&#45;Term Memory Cache</title>
<path fill="none" stroke="black" d="M655.19,-791.7C655.19,-783.98 655.19,-774.71 655.19,-766.11"/>
<polygon fill="black" stroke="black" points="658.69,-766.1 655.19,-756.1 651.69,-766.1 658.69,-766.1"/>
</g>
<!-- Swarm Assembly Protocols -->
<g id="node14" class="node">
<title>Swarm Assembly Protocols</title>
<ellipse fill="none" stroke="black" cx="946.19" cy="-738" rx="137.28" ry="18"/>
<text text-anchor="middle" x="946.19" y="-734.3" font-family="Times,serif" font-size="14.00">Swarm Assembly Protocols</text>
</g>
<!-- Swarm Coordinator&#45;&gt;Swarm Assembly Protocols -->
<g id="edge13" class="edge">
<title>Swarm Coordinator&#45;&gt;Swarm Assembly Protocols</title>
<path fill="none" stroke="black" d="M914.36,-792.05C919.24,-783.92 925.19,-774 930.63,-764.94"/>
<polygon fill="black" stroke="black" points="933.68,-766.65 935.83,-756.28 927.68,-763.05 933.68,-766.65"/>
</g>
<!-- Tool/Plugin Invoker -->
<g id="node13" class="node">
<title>Tool/Plugin Invoker</title>
<ellipse fill="none" stroke="black" cx="385.19" cy="-666" rx="100.98" ry="18"/>
<text text-anchor="middle" x="385.19" y="-662.3" font-family="Times,serif" font-size="14.00">Tool/Plugin Invoker</text>
</g>
<!-- Task Execution Engine&#45;&gt;Tool/Plugin Invoker -->
<g id="edge12" class="edge">
<title>Task Execution Engine&#45;&gt;Tool/Plugin Invoker</title>
<path fill="none" stroke="black" d="M385.19,-719.7C385.19,-711.98 385.19,-702.71 385.19,-694.11"/>
<polygon fill="black" stroke="black" points="388.69,-694.1 385.19,-684.1 381.69,-694.1 388.69,-694.1"/>
</g>
<!-- Eligible Agent Discovery -->
<g id="node15" class="node">
<title>Eligible Agent Discovery</title>
<ellipse fill="none" stroke="black" cx="946.19" cy="-666" rx="125.38" ry="18"/>
<text text-anchor="middle" x="946.19" y="-662.3" font-family="Times,serif" font-size="14.00">Eligible Agent Discovery</text>
</g>
<!-- Swarm Assembly Protocols&#45;&gt;Eligible Agent Discovery -->
<g id="edge14" class="edge">
<title>Swarm Assembly Protocols&#45;&gt;Eligible Agent Discovery</title>
<path fill="none" stroke="black" d="M946.19,-719.7C946.19,-711.98 946.19,-702.71 946.19,-694.11"/>
<polygon fill="black" stroke="black" points="949.69,-694.1 946.19,-684.1 942.69,-694.1 949.69,-694.1"/>
</g>
<!-- Swarm Contract Builder -->
<g id="node16" class="node">
<title>Swarm Contract Builder</title>
<ellipse fill="none" stroke="black" cx="946.19" cy="-594" rx="124.28" ry="18"/>
<text text-anchor="middle" x="946.19" y="-590.3" font-family="Times,serif" font-size="14.00">Swarm Contract Builder</text>
</g>
<!-- Eligible Agent Discovery&#45;&gt;Swarm Contract Builder -->
<g id="edge15" class="edge">
<title>Eligible Agent Discovery&#45;&gt;Swarm Contract Builder</title>
<path fill="none" stroke="black" d="M946.19,-647.7C946.19,-639.98 946.19,-630.71 946.19,-622.11"/>
<polygon fill="black" stroke="black" points="949.69,-622.1 946.19,-612.1 942.69,-622.1 949.69,-622.1"/>
</g>
<!-- Swarm Role Allocator -->
<g id="node17" class="node">
<title>Swarm Role Allocator</title>
<ellipse fill="none" stroke="black" cx="946.19" cy="-522" rx="111.28" ry="18"/>
<text text-anchor="middle" x="946.19" y="-518.3" font-family="Times,serif" font-size="14.00">Swarm Role Allocator</text>
</g>
<!-- Swarm Contract Builder&#45;&gt;Swarm Role Allocator -->
<g id="edge16" class="edge">
<title>Swarm Contract Builder&#45;&gt;Swarm Role Allocator</title>
<path fill="none" stroke="black" d="M946.19,-575.7C946.19,-567.98 946.19,-558.71 946.19,-550.11"/>
<polygon fill="black" stroke="black" points="949.69,-550.1 946.19,-540.1 942.69,-550.1 949.69,-550.1"/>
</g>
<!-- Swarm Execution Cluster -->
<g id="node18" class="node">
<title>Swarm Execution Cluster</title>
<ellipse fill="none" stroke="black" cx="946.19" cy="-450" rx="129.98" ry="18"/>
<text text-anchor="middle" x="946.19" y="-446.3" font-family="Times,serif" font-size="14.00">Swarm Execution Cluster</text>
</g>
<!-- Swarm Role Allocator&#45;&gt;Swarm Execution Cluster -->
<g id="edge17" class="edge">
<title>Swarm Role Allocator&#45;&gt;Swarm Execution Cluster</title>
<path fill="none" stroke="black" d="M946.19,-503.7C946.19,-495.98 946.19,-486.71 946.19,-478.11"/>
<polygon fill="black" stroke="black" points="949.69,-478.1 946.19,-468.1 942.69,-478.1 949.69,-478.1"/>
</g>
<!-- Distributed Task Log -->
<g id="node19" class="node">
<title>Distributed Task Log</title>
<ellipse fill="none" stroke="black" cx="946.19" cy="-378" rx="107.78" ry="18"/>
<text text-anchor="middle" x="946.19" y="-374.3" font-family="Times,serif" font-size="14.00">Distributed Task Log</text>
</g>
<!-- Swarm Execution Cluster&#45;&gt;Distributed Task Log -->
<g id="edge18" class="edge">
<title>Swarm Execution Cluster&#45;&gt;Distributed Task Log</title>
<path fill="none" stroke="black" d="M946.19,-431.7C946.19,-423.98 946.19,-414.71 946.19,-406.11"/>
<polygon fill="black" stroke="black" points="949.69,-406.1 946.19,-396.1 942.69,-406.1 949.69,-406.1"/>
</g>
<!-- Trust Score Update -->
<g id="node20" class="node">
<title>Trust Score Update</title>
<ellipse fill="none" stroke="black" cx="946.19" cy="-306" rx="102.08" ry="18"/>
<text text-anchor="middle" x="946.19" y="-302.3" font-family="Times,serif" font-size="14.00">Trust Score Update</text>
</g>
<!-- Distributed Task Log&#45;&gt;Trust Score Update -->
<g id="edge19" class="edge">
<title>Distributed Task Log&#45;&gt;Trust Score Update</title>
<path fill="none" stroke="black" d="M946.19,-359.7C946.19,-351.98 946.19,-342.71 946.19,-334.11"/>
<polygon fill="black" stroke="black" points="949.69,-334.1 946.19,-324.1 942.69,-334.1 949.69,-334.1"/>
</g>
<!-- Reputation Ledger -->
<g id="node21" class="node">
<title>Reputation Ledger</title>
<ellipse fill="none" stroke="black" cx="946.19" cy="-234" rx="97.48" ry="18"/>
<text text-anchor="middle" x="946.19" y="-230.3" font-family="Times,serif" font-size="14.00">Reputation Ledger</text>
</g>
<!-- Trust Score Update&#45;&gt;Reputation Ledger -->
<g id="edge20" class="edge">
<title>Trust Score Update&#45;&gt;Reputation Ledger</title>
<path fill="none" stroke="black" d="M946.19,-287.7C946.19,-279.98 946.19,-270.71 946.19,-262.11"/>
<polygon fill="black" stroke="black" points="949.69,-262.1 946.19,-252.1 942.69,-262.1 949.69,-262.1"/>
</g>
<!-- Trust Zone Assignment -->
<g id="node22" class="node">
<title>Trust Zone Assignment</title>
<ellipse fill="none" stroke="black" cx="946.19" cy="-162" rx="118.88" ry="18"/>
<text text-anchor="middle" x="946.19" y="-158.3" font-family="Times,serif" font-size="14.00">Trust Zone Assignment</text>
</g>
<!-- Reputation Ledger&#45;&gt;Trust Zone Assignment -->
<g id="edge21" class="edge">
<title>Reputation Ledger&#45;&gt;Trust Zone Assignment</title>
<path fill="none" stroke="black" d="M946.19,-215.7C946.19,-207.98 946.19,-198.71 946.19,-190.11"/>
<polygon fill="black" stroke="black" points="949.69,-190.1 946.19,-180.1 942.69,-190.1 949.69,-190.1"/>
</g>
<!-- Access Control Layer -->
<g id="node23" class="node">
<title>Access Control Layer</title>
<ellipse fill="none" stroke="black" cx="946.19" cy="-90" rx="108.58" ry="18"/>
<text text-anchor="middle" x="946.19" y="-86.3" font-family="Times,serif" font-size="14.00">Access Control Layer</text>
</g>
<!-- Trust Zone Assignment&#45;&gt;Access Control Layer -->
<g id="edge22" class="edge">
<title>Trust Zone Assignment&#45;&gt;Access Control Layer</title>
<path fill="none" stroke="black" d="M946.19,-143.7C946.19,-135.98 946.19,-126.71 946.19,-118.11"/>
<polygon fill="black" stroke="black" points="949.69,-118.1 946.19,-108.1 942.69,-118.1 949.69,-118.1"/>
</g>
<!-- Secure Task Orchestrator -->
<g id="node24" class="node">
<title>Secure Task Orchestrator</title>
<ellipse fill="none" stroke="black" cx="946.19" cy="-18" rx="129.98" ry="18"/>
<text text-anchor="middle" x="946.19" y="-14.3" font-family="Times,serif" font-size="14.00">Secure Task Orchestrator</text>
</g>
<!-- Access Control Layer&#45;&gt;Secure Task Orchestrator -->
<g id="edge23" class="edge">
<title>Access Control Layer&#45;&gt;Secure Task Orchestrator</title>
<path fill="none" stroke="black" d="M946.19,-71.7C946.19,-63.98 946.19,-54.71 946.19,-46.11"/>
<polygon fill="black" stroke="black" points="949.69,-46.1 946.19,-36.1 942.69,-46.1 949.69,-46.1"/>
</g>
</g>
</svg>
