<?xml version="1.0" encoding="UTF-8" standalone="no"?>
<!DOCTYPE svg PUBLIC "-//W3C//DTD SVG 1.1//EN"
 "http://www.w3.org/Graphics/SVG/1.1/DTD/svg11.dtd">
<!-- Generated by graphviz version 2.43.0 (0)
 -->
<!-- Title: %3 Pages: 1 -->
<svg width="638pt" height="908pt"
 viewBox="0.00 0.00 638.12 908.00" xmlns="http://www.w3.org/2000/svg" xmlns:xlink="http://www.w3.org/1999/xlink">
<g id="graph0" class="graph" transform="scale(1 1) rotate(0) translate(4 904)">
<title>%3</title>
<polygon fill="white" stroke="transparent" points="-4,4 -4,-904 634.12,-904 634.12,4 -4,4"/>
<!-- Task Identified -->
<g id="node1" class="node">
<title>Task Identified</title>
<ellipse fill="none" stroke="black" cx="309.54" cy="-882" rx="79.09" ry="18"/>
<text text-anchor="middle" x="309.54" y="-878.3" font-family="Times,serif" font-size="14.00">Task Identified</text>
</g>
<!-- Swarm Bootloader -->
<g id="node2" class="node">
<title>Swarm Bootloader</title>
<ellipse fill="none" stroke="black" cx="309.54" cy="-810" rx="96.68" ry="18"/>
<text text-anchor="middle" x="309.54" y="-806.3" font-family="Times,serif" font-size="14.00">Swarm Bootloader</text>
</g>
<!-- Task Identified&#45;&gt;Swarm Bootloader -->
<g id="edge1" class="edge">
<title>Task Identified&#45;&gt;Swarm Bootloader</title>
<path fill="none" stroke="black" d="M309.54,-863.7C309.54,-855.98 309.54,-846.71 309.54,-838.11"/>
<polygon fill="black" stroke="black" points="313.04,-838.1 309.54,-828.1 306.04,-838.1 313.04,-838.1"/>
</g>
<!-- Swarm ID Generation -->
<g id="node3" class="node">
<title>Swarm ID Generation</title>
<ellipse fill="none" stroke="black" cx="309.54" cy="-738" rx="111.58" ry="18"/>
<text text-anchor="middle" x="309.54" y="-734.3" font-family="Times,serif" font-size="14.00">Swarm ID Generation</text>
</g>
<!-- Swarm Bootloader&#45;&gt;Swarm ID Generation -->
<g id="edge2" class="edge">
<title>Swarm Bootloader&#45;&gt;Swarm ID Generation</title>
<path fill="none" stroke="black" d="M309.54,-791.7C309.54,-783.98 309.54,-774.71 309.54,-766.11"/>
<polygon fill="black" stroke="black" points="313.04,-766.1 309.54,-756.1 306.04,-766.1 313.04,-766.1"/>
</g>
<!-- Eligibility Check -->
<g id="node4" class="node">
<title>Eligibility Check</title>
<ellipse fill="none" stroke="black" cx="309.54" cy="-666" rx="87.18" ry="18"/>
<text text-anchor="middle" x="309.54" y="-662.3" font-family="Times,serif" font-size="14.00">Eligibility Check</text>
</g>
<!-- Swarm ID Generation&#45;&gt;Eligibility Check -->
<g id="edge3" class="edge">
<title>Swarm ID Generation&#45;&gt;Eligibility Check</title>
<path fill="none" stroke="black" d="M309.54,-719.7C309.54,-711.98 309.54,-702.71 309.54,-694.11"/>
<polygon fill="black" stroke="black" points="313.04,-694.1 309.54,-684.1 306.04,-694.1 313.04,-694.1"/>
</g>
<!-- Swarm Pact Signing -->
<g id="node5" class="node">
<title>Swarm Pact Signing</title>
<ellipse fill="none" stroke="black" cx="309.54" cy="-594" rx="104.78" ry="18"/>
<text text-anchor="middle" x="309.54" y="-590.3" font-family="Times,serif" font-size="14.00">Swarm Pact Signing</text>
</g>
<!-- Eligibility Check&#45;&gt;Swarm Pact Signing -->
<g id="edge4" class="edge">
<title>Eligibility Check&#45;&gt;Swarm Pact Signing</title>
<path fill="none" stroke="black" d="M309.54,-647.7C309.54,-639.98 309.54,-630.71 309.54,-622.11"/>
<polygon fill="black" stroke="black" points="313.04,-622.1 309.54,-612.1 306.04,-622.1 313.04,-622.1"/>
</g>
<!-- Swarm Clock Init -->
<g id="node6" class="node">
<title>Swarm Clock Init</title>
<ellipse fill="none" stroke="black" cx="309.54" cy="-522" rx="90.98" ry="18"/>
<text text-anchor="middle" x="309.54" y="-518.3" font-family="Times,serif" font-size="14.00">Swarm Clock Init</text>
</g>
<!-- Swarm Pact Signing&#45;&gt;Swarm Clock Init -->
<g id="edge5" class="edge">
<title>Swarm Pact Signing&#45;&gt;Swarm Clock Init</title>
<path fill="none" stroke="black" d="M309.54,-575.7C309.54,-567.98 309.54,-558.71 309.54,-550.11"/>
<polygon fill="black" stroke="black" points="313.04,-550.1 309.54,-540.1 306.04,-550.1 313.04,-550.1"/>
</g>
<!-- CRDT State Init -->
<g id="node7" class="node">
<title>CRDT State Init</title>
<ellipse fill="none" stroke="black" cx="309.54" cy="-450" rx="84.49" ry="18"/>
<text text-anchor="middle" x="309.54" y="-446.3" font-family="Times,serif" font-size="14.00">CRDT State Init</text>
</g>
<!-- Swarm Clock Init&#45;&gt;CRDT State Init -->
<g id="edge6" class="edge">
<title>Swarm Clock Init&#45;&gt;CRDT State Init</title>
<path fill="none" stroke="black" d="M309.54,-503.7C309.54,-495.98 309.54,-486.71 309.54,-478.11"/>
<polygon fill="black" stroke="black" points="313.04,-478.1 309.54,-468.1 306.04,-478.1 313.04,-478.1"/>
</g>
<!-- Micro&#45;Auction Task Routing -->
<g id="node8" class="node">
<title>Micro&#45;Auction Task Routing</title>
<ellipse fill="none" stroke="black" cx="309.54" cy="-378" rx="139.18" ry="18"/>
<text text-anchor="middle" x="309.54" y="-374.3" font-family="Times,serif" font-size="14.00">Micro&#45;Auction Task Routing</text>
</g>
<!-- CRDT State Init&#45;&gt;Micro&#45;Auction Task Routing -->
<g id="edge7" class="edge">
<title>CRDT State Init&#45;&gt;Micro&#45;Auction Task Routing</title>
<path fill="none" stroke="black" d="M309.54,-431.7C309.54,-423.98 309.54,-414.71 309.54,-406.11"/>
<polygon fill="black" stroke="black" points="313.04,-406.1 309.54,-396.1 306.04,-406.1 313.04,-406.1"/>
</g>
<!-- Execution Phase -->
<g id="node9" class="node">
<title>Execution Phase</title>
<ellipse fill="none" stroke="black" cx="309.54" cy="-306" rx="87.99" ry="18"/>
<text text-anchor="middle" x="309.54" y="-302.3" font-family="Times,serif" font-size="14.00">Execution Phase</text>
</g>
<!-- Micro&#45;Auction Task Routing&#45;&gt;Execution Phase -->
<g id="edge8" class="edge">
<title>Micro&#45;Auction Task Routing&#45;&gt;Execution Phase</title>
<path fill="none" stroke="black" d="M309.54,-359.7C309.54,-351.98 309.54,-342.71 309.54,-334.11"/>
<polygon fill="black" stroke="black" points="313.04,-334.1 309.54,-324.1 306.04,-334.1 313.04,-334.1"/>
</g>
<!-- Swarm Health Monitoring -->
<g id="node10" class="node">
<title>Swarm Health Monitoring</title>
<ellipse fill="none" stroke="black" cx="155.54" cy="-234" rx="131.88" ry="18"/>
<text text-anchor="middle" x="155.54" y="-230.3" font-family="Times,serif" font-size="14.00">Swarm Health Monitoring</text>
</g>
<!-- Execution Phase&#45;&gt;Swarm Health Monitoring -->
<g id="edge9" class="edge">
<title>Execution Phase&#45;&gt;Swarm Health Monitoring</title>
<path fill="none" stroke="black" d="M274.98,-289.29C253.06,-279.33 224.46,-266.33 200.75,-255.55"/>
<polygon fill="black" stroke="black" points="202.14,-252.34 191.59,-251.39 199.24,-258.71 202.14,-252.34"/>
</g>
<!-- Swarm Finalization Protocol -->
<g id="node12" class="node">
<title>Swarm Finalization Protocol</title>
<ellipse fill="none" stroke="black" cx="463.54" cy="-234" rx="142.17" ry="18"/>
<text text-anchor="middle" x="463.54" y="-230.3" font-family="Times,serif" font-size="14.00">Swarm Finalization Protocol</text>
</g>
<!-- Execution Phase&#45;&gt;Swarm Finalization Protocol -->
<g id="edge11" class="edge">
<title>Execution Phase&#45;&gt;Swarm Finalization Protocol</title>
<path fill="none" stroke="black" d="M344.1,-289.29C365.94,-279.36 394.41,-266.42 418.07,-255.67"/>
<polygon fill="black" stroke="black" points="419.56,-258.83 427.22,-251.51 416.66,-252.46 419.56,-258.83"/>
</g>
<!-- Swarm Reassignment Engine -->
<g id="node11" class="node">
<title>Swarm Reassignment Engine</title>
<ellipse fill="none" stroke="black" cx="147.54" cy="-162" rx="147.57" ry="18"/>
<text text-anchor="middle" x="147.54" y="-158.3" font-family="Times,serif" font-size="14.00">Swarm Reassignment Engine</text>
</g>
<!-- Swarm Health Monitoring&#45;&gt;Swarm Reassignment Engine -->
<g id="edge10" class="edge">
<title>Swarm Health Monitoring&#45;&gt;Swarm Reassignment Engine</title>
<path fill="none" stroke="black" d="M153.56,-215.7C152.68,-207.98 151.62,-198.71 150.64,-190.11"/>
<polygon fill="black" stroke="black" points="154.1,-189.64 149.49,-180.1 147.15,-190.44 154.1,-189.64"/>
</g>
<!-- Trust Updates + Role Feedback -->
<g id="node13" class="node">
<title>Trust Updates + Role Feedback</title>
<ellipse fill="none" stroke="black" cx="471.54" cy="-162" rx="158.67" ry="18"/>
<text text-anchor="middle" x="471.54" y="-158.3" font-family="Times,serif" font-size="14.00">Trust Updates + Role Feedback</text>
</g>
<!-- Swarm Finalization Protocol&#45;&gt;Trust Updates + Role Feedback -->
<g id="edge12" class="edge">
<title>Swarm Finalization Protocol&#45;&gt;Trust Updates + Role Feedback</title>
<path fill="none" stroke="black" d="M465.51,-215.7C466.4,-207.98 467.46,-198.71 468.44,-190.11"/>
<polygon fill="black" stroke="black" points="471.92,-190.44 469.58,-180.1 464.97,-189.64 471.92,-190.44"/>
</g>
<!-- Ledger Sync -->
<g id="node14" class="node">
<title>Ledger Sync</title>
<ellipse fill="none" stroke="black" cx="471.54" cy="-90" rx="68.79" ry="18"/>
<text text-anchor="middle" x="471.54" y="-86.3" font-family="Times,serif" font-size="14.00">Ledger Sync</text>
</g>
<!-- Trust Updates + Role Feedback&#45;&gt;Ledger Sync -->
<g id="edge13" class="edge">
<title>Trust Updates + Role Feedback&#45;&gt;Ledger Sync</title>
<path fill="none" stroke="black" d="M471.54,-143.7C471.54,-135.98 471.54,-126.71 471.54,-118.11"/>
<polygon fill="black" stroke="black" points="475.04,-118.1 471.54,-108.1 468.04,-118.1 475.04,-118.1"/>
</g>
<!-- Swarm Disband -->
<g id="node15" class="node">
<title>Swarm Disband</title>
<ellipse fill="none" stroke="black" cx="471.54" cy="-18" rx="84.49" ry="18"/>
<text text-anchor="middle" x="471.54" y="-14.3" font-family="Times,serif" font-size="14.00">Swarm Disband</text>
</g>
<!-- Ledger Sync&#45;&gt;Swarm Disband -->
<g id="edge14" class="edge">
<title>Ledger Sync&#45;&gt;Swarm Disband</title>
<path fill="none" stroke="black" d="M471.54,-71.7C471.54,-63.98 471.54,-54.71 471.54,-46.11"/>
<polygon fill="black" stroke="black" points="475.04,-46.1 471.54,-36.1 468.04,-46.1 475.04,-46.1"/>
</g>
</g>
</svg>
