<?xml version="1.0" encoding="UTF-8" standalone="no"?>
<!DOCTYPE svg PUBLIC "-//W3C//DTD SVG 1.1//EN"
 "http://www.w3.org/Graphics/SVG/1.1/DTD/svg11.dtd">
<!-- Generated by graphviz version 2.43.0 (0)
 -->
<!-- Title: %3 Pages: 1 -->
<svg width="753pt" height="548pt"
 viewBox="0.00 0.00 752.58 548.00" xmlns="http://www.w3.org/2000/svg" xmlns:xlink="http://www.w3.org/1999/xlink">
<g id="graph0" class="graph" transform="scale(1 1) rotate(0) translate(4 544)">
<title>%3</title>
<polygon fill="white" stroke="transparent" points="-4,4 -4,-544 748.58,-544 748.58,4 -4,4"/>
<!-- User Prompt -->
<g id="node1" class="node">
<title>User Prompt</title>
<ellipse fill="none" stroke="black" cx="334.44" cy="-522" rx="70.69" ry="18"/>
<text text-anchor="middle" x="334.44" y="-518.3" font-family="Times,serif" font-size="14.00">User Prompt</text>
</g>
<!-- Persona Selector -->
<g id="node2" class="node">
<title>Persona Selector</title>
<ellipse fill="none" stroke="black" cx="334.44" cy="-450" rx="89.08" ry="18"/>
<text text-anchor="middle" x="334.44" y="-446.3" font-family="Times,serif" font-size="14.00">Persona Selector</text>
</g>
<!-- User Prompt&#45;&gt;Persona Selector -->
<g id="edge1" class="edge">
<title>User Prompt&#45;&gt;Persona Selector</title>
<path fill="none" stroke="black" d="M334.44,-503.7C334.44,-495.98 334.44,-486.71 334.44,-478.11"/>
<polygon fill="black" stroke="black" points="337.94,-478.1 334.44,-468.1 330.94,-478.1 337.94,-478.1"/>
</g>
<!-- Voice + Tone Filter -->
<g id="node3" class="node">
<title>Voice + Tone Filter</title>
<ellipse fill="none" stroke="black" cx="99.44" cy="-378" rx="99.38" ry="18"/>
<text text-anchor="middle" x="99.44" y="-374.3" font-family="Times,serif" font-size="14.00">Voice + Tone Filter</text>
</g>
<!-- Persona Selector&#45;&gt;Voice + Tone Filter -->
<g id="edge2" class="edge">
<title>Persona Selector&#45;&gt;Voice + Tone Filter</title>
<path fill="none" stroke="black" d="M286.6,-434.75C249.61,-423.73 198.2,-408.42 158.62,-396.63"/>
<polygon fill="black" stroke="black" points="159.41,-393.21 148.83,-393.71 157.42,-399.92 159.41,-393.21"/>
</g>
<!-- Visual Theme Manager -->
<g id="node4" class="node">
<title>Visual Theme Manager</title>
<ellipse fill="none" stroke="black" cx="334.44" cy="-378" rx="117.78" ry="18"/>
<text text-anchor="middle" x="334.44" y="-374.3" font-family="Times,serif" font-size="14.00">Visual Theme Manager</text>
</g>
<!-- Persona Selector&#45;&gt;Visual Theme Manager -->
<g id="edge3" class="edge">
<title>Persona Selector&#45;&gt;Visual Theme Manager</title>
<path fill="none" stroke="black" d="M334.44,-431.7C334.44,-423.98 334.44,-414.71 334.44,-406.11"/>
<polygon fill="black" stroke="black" points="337.94,-406.1 334.44,-396.1 330.94,-406.1 337.94,-406.1"/>
</g>
<!-- Emotion Response Adapter -->
<g id="node5" class="node">
<title>Emotion Response Adapter</title>
<ellipse fill="none" stroke="black" cx="607.44" cy="-378" rx="137.28" ry="18"/>
<text text-anchor="middle" x="607.44" y="-374.3" font-family="Times,serif" font-size="14.00">Emotion Response Adapter</text>
</g>
<!-- Persona Selector&#45;&gt;Emotion Response Adapter -->
<g id="edge4" class="edge">
<title>Persona Selector&#45;&gt;Emotion Response Adapter</title>
<path fill="none" stroke="black" d="M387.4,-435.42C430.4,-424.4 491.36,-408.77 538.21,-396.75"/>
<polygon fill="black" stroke="black" points="539.17,-400.12 547.99,-394.24 537.43,-393.34 539.17,-400.12"/>
</g>
<!-- Prompt Rendering Layer -->
<g id="node6" class="node">
<title>Prompt Rendering Layer</title>
<ellipse fill="none" stroke="black" cx="334.44" cy="-306" rx="126.18" ry="18"/>
<text text-anchor="middle" x="334.44" y="-302.3" font-family="Times,serif" font-size="14.00">Prompt Rendering Layer</text>
</g>
<!-- Voice + Tone Filter&#45;&gt;Prompt Rendering Layer -->
<g id="edge5" class="edge">
<title>Voice + Tone Filter&#45;&gt;Prompt Rendering Layer</title>
<path fill="none" stroke="black" d="M148.7,-362.33C184.81,-351.57 234.07,-336.9 272.79,-325.36"/>
<polygon fill="black" stroke="black" points="273.81,-328.71 282.39,-322.5 271.81,-322 273.81,-328.71"/>
</g>
<!-- Visual Theme Manager&#45;&gt;Prompt Rendering Layer -->
<g id="edge6" class="edge">
<title>Visual Theme Manager&#45;&gt;Prompt Rendering Layer</title>
<path fill="none" stroke="black" d="M334.44,-359.7C334.44,-351.98 334.44,-342.71 334.44,-334.11"/>
<polygon fill="black" stroke="black" points="337.94,-334.1 334.44,-324.1 330.94,-334.1 337.94,-334.1"/>
</g>
<!-- Emotion Response Adapter&#45;&gt;Prompt Rendering Layer -->
<g id="edge7" class="edge">
<title>Emotion Response Adapter&#45;&gt;Prompt Rendering Layer</title>
<path fill="none" stroke="black" d="M547.87,-361.72C505.13,-350.77 447.46,-335.98 402.84,-324.54"/>
<polygon fill="black" stroke="black" points="403.51,-321.1 392.95,-322 401.77,-327.88 403.51,-321.1"/>
</g>
<!-- Agent Expression Engine -->
<g id="node7" class="node">
<title>Agent Expression Engine</title>
<ellipse fill="none" stroke="black" cx="334.44" cy="-234" rx="128.08" ry="18"/>
<text text-anchor="middle" x="334.44" y="-230.3" font-family="Times,serif" font-size="14.00">Agent Expression Engine</text>
</g>
<!-- Prompt Rendering Layer&#45;&gt;Agent Expression Engine -->
<g id="edge8" class="edge">
<title>Prompt Rendering Layer&#45;&gt;Agent Expression Engine</title>
<path fill="none" stroke="black" d="M334.44,-287.7C334.44,-279.98 334.44,-270.71 334.44,-262.11"/>
<polygon fill="black" stroke="black" points="337.94,-262.1 334.44,-252.1 330.94,-262.1 337.94,-262.1"/>
</g>
<!-- Chat + Canvas UI -->
<g id="node8" class="node">
<title>Chat + Canvas UI</title>
<ellipse fill="none" stroke="black" cx="334.44" cy="-162" rx="94.48" ry="18"/>
<text text-anchor="middle" x="334.44" y="-158.3" font-family="Times,serif" font-size="14.00">Chat + Canvas UI</text>
</g>
<!-- Agent Expression Engine&#45;&gt;Chat + Canvas UI -->
<g id="edge9" class="edge">
<title>Agent Expression Engine&#45;&gt;Chat + Canvas UI</title>
<path fill="none" stroke="black" d="M334.44,-215.7C334.44,-207.98 334.44,-198.71 334.44,-190.11"/>
<polygon fill="black" stroke="black" points="337.94,-190.1 334.44,-180.1 330.94,-190.1 337.94,-190.1"/>
</g>
<!-- Creative Mode Switcher -->
<g id="node9" class="node">
<title>Creative Mode Switcher</title>
<ellipse fill="none" stroke="black" cx="334.44" cy="-90" rx="123.48" ry="18"/>
<text text-anchor="middle" x="334.44" y="-86.3" font-family="Times,serif" font-size="14.00">Creative Mode Switcher</text>
</g>
<!-- Chat + Canvas UI&#45;&gt;Creative Mode Switcher -->
<g id="edge10" class="edge">
<title>Chat + Canvas UI&#45;&gt;Creative Mode Switcher</title>
<path fill="none" stroke="black" d="M334.44,-143.7C334.44,-135.98 334.44,-126.71 334.44,-118.11"/>
<polygon fill="black" stroke="black" points="337.94,-118.1 334.44,-108.1 330.94,-118.1 337.94,-118.1"/>
</g>
<!-- Story Engine / Roleplay Mode / Artistic Output -->
<g id="node10" class="node">
<title>Story Engine / Roleplay Mode / Artistic Output</title>
<ellipse fill="none" stroke="black" cx="334.44" cy="-18" rx="227.46" ry="18"/>
<text text-anchor="middle" x="334.44" y="-14.3" font-family="Times,serif" font-size="14.00">Story Engine / Roleplay Mode / Artistic Output</text>
</g>
<!-- Creative Mode Switcher&#45;&gt;Story Engine / Roleplay Mode / Artistic Output -->
<g id="edge11" class="edge">
<title>Creative Mode Switcher&#45;&gt;Story Engine / Roleplay Mode / Artistic Output</title>
<path fill="none" stroke="black" d="M334.44,-71.7C334.44,-63.98 334.44,-54.71 334.44,-46.11"/>
<polygon fill="black" stroke="black" points="337.94,-46.1 334.44,-36.1 330.94,-46.1 337.94,-46.1"/>
</g>
</g>
</svg>
