<?xml version="1.0" encoding="UTF-8" standalone="no"?>
<!DOCTYPE svg PUBLIC "-//W3C//DTD SVG 1.1//EN"
 "http://www.w3.org/Graphics/SVG/1.1/DTD/svg11.dtd">
<!-- Generated by graphviz version 2.43.0 (0)
 -->
<!-- Title: %3 Pages: 1 -->
<svg width="870pt" height="548pt"
 viewBox="0.00 0.00 870.27 548.00" xmlns="http://www.w3.org/2000/svg" xmlns:xlink="http://www.w3.org/1999/xlink">
<g id="graph0" class="graph" transform="scale(1 1) rotate(0) translate(4 544)">
<title>%3</title>
<polygon fill="white" stroke="transparent" points="-4,4 -4,-544 866.27,-544 866.27,4 -4,4"/>
<!-- Edge Device -->
<g id="node1" class="node">
<title>Edge Device</title>
<ellipse fill="none" stroke="black" cx="402.34" cy="-522" rx="68.79" ry="18"/>
<text text-anchor="middle" x="402.34" y="-518.3" font-family="Times,serif" font-size="14.00">Edge Device</text>
</g>
<!-- Sensor Bus -->
<g id="node2" class="node">
<title>Sensor Bus</title>
<ellipse fill="none" stroke="black" cx="402.34" cy="-450" rx="63.89" ry="18"/>
<text text-anchor="middle" x="402.34" y="-446.3" font-family="Times,serif" font-size="14.00">Sensor Bus</text>
</g>
<!-- Edge Device&#45;&gt;Sensor Bus -->
<g id="edge1" class="edge">
<title>Edge Device&#45;&gt;Sensor Bus</title>
<path fill="none" stroke="black" d="M402.34,-503.7C402.34,-495.98 402.34,-486.71 402.34,-478.11"/>
<polygon fill="black" stroke="black" points="405.84,-478.1 402.34,-468.1 398.84,-478.1 405.84,-478.1"/>
</g>
<!-- Wearables -->
<g id="node3" class="node">
<title>Wearables</title>
<ellipse fill="none" stroke="black" cx="153.34" cy="-378" rx="59.29" ry="18"/>
<text text-anchor="middle" x="153.34" y="-374.3" font-family="Times,serif" font-size="14.00">Wearables</text>
</g>
<!-- Sensor Bus&#45;&gt;Wearables -->
<g id="edge2" class="edge">
<title>Sensor Bus&#45;&gt;Wearables: Biometric Stream</title>
<path fill="none" stroke="black" d="M358.97,-436.81C316.13,-424.76 250.59,-406.34 205.07,-393.54"/>
<polygon fill="black" stroke="black" points="205.96,-390.16 195.38,-390.82 204.06,-396.9 205.96,-390.16"/>
</g>
<!-- Camera, Mic, Motion Sensing -->
<g id="node4" class="node">
<title>Camera, Mic, Motion Sensing</title>
<ellipse fill="none" stroke="black" cx="402.34" cy="-378" rx="148.37" ry="18"/>
<text text-anchor="middle" x="402.34" y="-374.3" font-family="Times,serif" font-size="14.00">Camera, Mic, Motion Sensing</text>
</g>
<!-- Sensor Bus&#45;&gt;Camera, Mic, Motion Sensing -->
<g id="edge3" class="edge">
<title>Sensor Bus&#45;&gt;Camera, Mic, Motion Sensing</title>
<path fill="none" stroke="black" d="M402.34,-431.7C402.34,-423.98 402.34,-414.71 402.34,-406.11"/>
<polygon fill="black" stroke="black" points="405.84,-406.1 402.34,-396.1 398.84,-406.1 405.84,-406.1"/>
</g>
<!-- Environmental Sensors -->
<g id="node5" class="node">
<title>Environmental Sensors</title>
<ellipse fill="none" stroke="black" cx="696.34" cy="-378" rx="119.68" ry="18"/>
<text text-anchor="middle" x="696.34" y="-374.3" font-family="Times,serif" font-size="14.00">Environmental Sensors</text>
</g>
<!-- Sensor Bus&#45;&gt;Environmental Sensors -->
<g id="edge4" class="edge">
<title>Sensor Bus&#45;&gt;Environmental Sensors</title>
<path fill="none" stroke="black" d="M449.57,-437.75C497.1,-426.44 570.96,-408.85 625.5,-395.87"/>
<polygon fill="black" stroke="black" points="626.53,-399.22 635.45,-393.5 624.91,-392.41 626.53,-399.22"/>
</g>
<!-- Health Signal Interpreter -->
<g id="node6" class="node">
<title>Health Signal Interpreter</title>
<ellipse fill="none" stroke="black" cx="129.34" cy="-306" rx="129.18" ry="18"/>
<text text-anchor="middle" x="129.34" y="-302.3" font-family="Times,serif" font-size="14.00">Health Signal Interpreter</text>
</g>
<!-- Wearables&#45;&gt;Health Signal Interpreter -->
<g id="edge5" class="edge">
<title>Wearables: Biometric Stream&#45;&gt;Health Signal Interpreter</title>
<path fill="none" stroke="black" d="M147.53,-360.05C144.83,-352.18 141.55,-342.62 138.53,-333.79"/>
<polygon fill="black" stroke="black" points="141.82,-332.6 135.26,-324.28 135.19,-334.87 141.82,-332.6"/>
</g>
<!-- Multimodal Input Fusion -->
<g id="node7" class="node">
<title>Multimodal Input Fusion</title>
<ellipse fill="none" stroke="black" cx="402.34" cy="-306" rx="126.18" ry="18"/>
<text text-anchor="middle" x="402.34" y="-302.3" font-family="Times,serif" font-size="14.00">Multimodal Input Fusion</text>
</g>
<!-- Camera, Mic, Motion Sensing&#45;&gt;Multimodal Input Fusion -->
<g id="edge6" class="edge">
<title>Camera, Mic, Motion Sensing&#45;&gt;Multimodal Input Fusion</title>
<path fill="none" stroke="black" d="M402.34,-359.7C402.34,-351.98 402.34,-342.71 402.34,-334.11"/>
<polygon fill="black" stroke="black" points="405.84,-334.1 402.34,-324.1 398.84,-334.1 405.84,-334.1"/>
</g>
<!-- Location + GeoFence Processor -->
<g id="node8" class="node">
<title>Location + GeoFence Processor</title>
<ellipse fill="none" stroke="black" cx="704.34" cy="-306" rx="157.87" ry="18"/>
<text text-anchor="middle" x="704.34" y="-302.3" font-family="Times,serif" font-size="14.00">Location + GeoFence Processor</text>
</g>
<!-- Environmental Sensors&#45;&gt;Location + GeoFence Processor -->
<g id="edge7" class="edge">
<title>Environmental Sensors&#45;&gt;Location + GeoFence Processor</title>
<path fill="none" stroke="black" d="M698.32,-359.7C699.2,-351.98 700.26,-342.71 701.24,-334.11"/>
<polygon fill="black" stroke="black" points="704.73,-334.44 702.38,-324.1 697.77,-333.64 704.73,-334.44"/>
</g>
<!-- Agent Trigger Hooks -->
<g id="node9" class="node">
<title>Agent Trigger Hooks</title>
<ellipse fill="none" stroke="black" cx="402.34" cy="-234" rx="107.48" ry="18"/>
<text text-anchor="middle" x="402.34" y="-230.3" font-family="Times,serif" font-size="14.00">Agent Trigger Hooks</text>
</g>
<!-- Health Signal Interpreter&#45;&gt;Agent Trigger Hooks -->
<g id="edge8" class="edge">
<title>Health Signal Interpreter&#45;&gt;Agent Trigger Hooks</title>
<path fill="none" stroke="black" d="M188.24,-289.9C231.9,-278.7 291.43,-263.44 336.63,-251.85"/>
<polygon fill="black" stroke="black" points="337.52,-255.23 346.34,-249.36 335.78,-248.45 337.52,-255.23"/>
</g>
<!-- Multimodal Input Fusion&#45;&gt;Agent Trigger Hooks -->
<g id="edge9" class="edge">
<title>Multimodal Input Fusion&#45;&gt;Agent Trigger Hooks</title>
<path fill="none" stroke="black" d="M402.34,-287.7C402.34,-279.98 402.34,-270.71 402.34,-262.11"/>
<polygon fill="black" stroke="black" points="405.84,-262.1 402.34,-252.1 398.84,-262.1 405.84,-262.1"/>
</g>
<!-- Location + GeoFence Processor&#45;&gt;Agent Trigger Hooks -->
<g id="edge10" class="edge">
<title>Location + GeoFence Processor&#45;&gt;Agent Trigger Hooks</title>
<path fill="none" stroke="black" d="M638.06,-289.64C588.99,-278.26 522.25,-262.79 472.32,-251.22"/>
<polygon fill="black" stroke="black" points="473.1,-247.81 462.56,-248.96 471.51,-254.63 473.1,-247.81"/>
</g>
<!-- Agent Event Queue -->
<g id="node10" class="node">
<title>Agent Event Queue</title>
<ellipse fill="none" stroke="black" cx="402.34" cy="-162" rx="100.98" ry="18"/>
<text text-anchor="middle" x="402.34" y="-158.3" font-family="Times,serif" font-size="14.00">Agent Event Queue</text>
</g>
<!-- Agent Trigger Hooks&#45;&gt;Agent Event Queue -->
<g id="edge11" class="edge">
<title>Agent Trigger Hooks&#45;&gt;Agent Event Queue</title>
<path fill="none" stroke="black" d="M402.34,-215.7C402.34,-207.98 402.34,-198.71 402.34,-190.11"/>
<polygon fill="black" stroke="black" points="405.84,-190.1 402.34,-180.1 398.84,-190.1 405.84,-190.1"/>
</g>
<!-- Task Generator -->
<g id="node11" class="node">
<title>Task Generator</title>
<ellipse fill="none" stroke="black" cx="402.34" cy="-90" rx="81.79" ry="18"/>
<text text-anchor="middle" x="402.34" y="-86.3" font-family="Times,serif" font-size="14.00">Task Generator</text>
</g>
<!-- Agent Event Queue&#45;&gt;Task Generator -->
<g id="edge12" class="edge">
<title>Agent Event Queue&#45;&gt;Task Generator</title>
<path fill="none" stroke="black" d="M402.34,-143.7C402.34,-135.98 402.34,-126.71 402.34,-118.11"/>
<polygon fill="black" stroke="black" points="405.84,-118.1 402.34,-108.1 398.84,-118.1 405.84,-118.1"/>
</g>
<!-- Local Execution or Swarm Callout -->
<g id="node12" class="node">
<title>Local Execution or Swarm Callout</title>
<ellipse fill="none" stroke="black" cx="402.34" cy="-18" rx="168.97" ry="18"/>
<text text-anchor="middle" x="402.34" y="-14.3" font-family="Times,serif" font-size="14.00">Local Execution or Swarm Callout</text>
</g>
<!-- Task Generator&#45;&gt;Local Execution or Swarm Callout -->
<g id="edge13" class="edge">
<title>Task Generator&#45;&gt;Local Execution or Swarm Callout</title>
<path fill="none" stroke="black" d="M402.34,-71.7C402.34,-63.98 402.34,-54.71 402.34,-46.11"/>
<polygon fill="black" stroke="black" points="405.84,-46.1 402.34,-36.1 398.84,-46.1 405.84,-46.1"/>
</g>
</g>
</svg>
