<?xml version="1.0" encoding="UTF-8" standalone="no"?>
<!DOCTYPE svg PUBLIC "-//W3C//DTD SVG 1.1//EN"
 "http://www.w3.org/Graphics/SVG/1.1/DTD/svg11.dtd">
<!-- Generated by graphviz version 2.43.0 (0)
 -->
<!-- Title: %3 Pages: 1 -->
<svg width="494pt" height="620pt"
 viewBox="0.00 0.00 493.63 620.00" xmlns="http://www.w3.org/2000/svg" xmlns:xlink="http://www.w3.org/1999/xlink">
<g id="graph0" class="graph" transform="scale(1 1) rotate(0) translate(4 616)">
<title>%3</title>
<polygon fill="white" stroke="transparent" points="-4,4 -4,-616 489.63,-616 489.63,4 -4,4"/>
<!-- Swarm Reports -->
<g id="node1" class="node">
<title>Swarm Reports</title>
<ellipse fill="none" stroke="black" cx="221.19" cy="-594" rx="83.39" ry="18"/>
<text text-anchor="middle" x="221.19" y="-590.3" font-family="Times,serif" font-size="14.00">Swarm Reports</text>
</g>
<!-- Consensus Vote -->
<g id="node2" class="node">
<title>Consensus Vote</title>
<ellipse fill="none" stroke="black" cx="221.19" cy="-522" rx="83.69" ry="18"/>
<text text-anchor="middle" x="221.19" y="-518.3" font-family="Times,serif" font-size="14.00">Consensus Vote</text>
</g>
<!-- Swarm Reports&#45;&gt;Consensus Vote -->
<g id="edge1" class="edge">
<title>Swarm Reports&#45;&gt;Consensus Vote</title>
<path fill="none" stroke="black" d="M221.19,-575.7C221.19,-567.98 221.19,-558.71 221.19,-550.11"/>
<polygon fill="black" stroke="black" points="224.69,-550.1 221.19,-540.1 217.69,-550.1 224.69,-550.1"/>
</g>
<!-- Distributed Agreement Index -->
<g id="node3" class="node">
<title>Distributed Agreement Index</title>
<ellipse fill="none" stroke="black" cx="221.19" cy="-450" rx="146.77" ry="18"/>
<text text-anchor="middle" x="221.19" y="-446.3" font-family="Times,serif" font-size="14.00">Distributed Agreement Index</text>
</g>
<!-- Consensus Vote&#45;&gt;Distributed Agreement Index -->
<g id="edge2" class="edge">
<title>Consensus Vote&#45;&gt;Distributed Agreement Index</title>
<path fill="none" stroke="black" d="M221.19,-503.7C221.19,-495.98 221.19,-486.71 221.19,-478.11"/>
<polygon fill="black" stroke="black" points="224.69,-478.1 221.19,-468.1 217.69,-478.1 224.69,-478.1"/>
</g>
<!-- Validated Output -->
<g id="node4" class="node">
<title>Validated Output</title>
<ellipse fill="none" stroke="black" cx="221.19" cy="-378" rx="89.88" ry="18"/>
<text text-anchor="middle" x="221.19" y="-374.3" font-family="Times,serif" font-size="14.00">Validated Output</text>
</g>
<!-- Distributed Agreement Index&#45;&gt;Validated Output -->
<g id="edge3" class="edge">
<title>Distributed Agreement Index&#45;&gt;Validated Output</title>
<path fill="none" stroke="black" d="M221.19,-431.7C221.19,-423.98 221.19,-414.71 221.19,-406.11"/>
<polygon fill="black" stroke="black" points="224.69,-406.1 221.19,-396.1 217.69,-406.1 224.69,-406.1"/>
</g>
<!-- Memory Graph Write -->
<g id="node5" class="node">
<title>Memory Graph Write</title>
<ellipse fill="none" stroke="black" cx="109.19" cy="-306" rx="109.38" ry="18"/>
<text text-anchor="middle" x="109.19" y="-302.3" font-family="Times,serif" font-size="14.00">Memory Graph Write</text>
</g>
<!-- Validated Output&#45;&gt;Memory Graph Write -->
<g id="edge4" class="edge">
<title>Validated Output&#45;&gt;Memory Graph Write</title>
<path fill="none" stroke="black" d="M195.21,-360.76C180.17,-351.36 161.01,-339.39 144.6,-329.13"/>
<polygon fill="black" stroke="black" points="146.14,-325.97 135.8,-323.63 142.43,-331.9 146.14,-325.97"/>
</g>
<!-- Knowledge Ledger -->
<g id="node6" class="node">
<title>Knowledge Ledger</title>
<ellipse fill="none" stroke="black" cx="334.19" cy="-306" rx="97.48" ry="18"/>
<text text-anchor="middle" x="334.19" y="-302.3" font-family="Times,serif" font-size="14.00">Knowledge Ledger</text>
</g>
<!-- Validated Output&#45;&gt;Knowledge Ledger -->
<g id="edge5" class="edge">
<title>Validated Output&#45;&gt;Knowledge Ledger</title>
<path fill="none" stroke="black" d="M247.4,-360.76C262.69,-351.29 282.19,-339.21 298.83,-328.91"/>
<polygon fill="black" stroke="black" points="301.07,-331.63 307.73,-323.39 297.39,-325.68 301.07,-331.63"/>
</g>
<!-- Model Update Candidates -->
<g id="node7" class="node">
<title>Model Update Candidates</title>
<ellipse fill="none" stroke="black" cx="334.19" cy="-234" rx="131.88" ry="18"/>
<text text-anchor="middle" x="334.19" y="-230.3" font-family="Times,serif" font-size="14.00">Model Update Candidates</text>
</g>
<!-- Knowledge Ledger&#45;&gt;Model Update Candidates -->
<g id="edge6" class="edge">
<title>Knowledge Ledger&#45;&gt;Model Update Candidates</title>
<path fill="none" stroke="black" d="M334.19,-287.7C334.19,-279.98 334.19,-270.71 334.19,-262.11"/>
<polygon fill="black" stroke="black" points="337.69,-262.1 334.19,-252.1 330.69,-262.1 337.69,-262.1"/>
</g>
<!-- Federated Training Loop -->
<g id="node8" class="node">
<title>Federated Training Loop</title>
<ellipse fill="none" stroke="black" cx="334.19" cy="-162" rx="125.38" ry="18"/>
<text text-anchor="middle" x="334.19" y="-158.3" font-family="Times,serif" font-size="14.00">Federated Training Loop</text>
</g>
<!-- Model Update Candidates&#45;&gt;Federated Training Loop -->
<g id="edge7" class="edge">
<title>Model Update Candidates&#45;&gt;Federated Training Loop</title>
<path fill="none" stroke="black" d="M334.19,-215.7C334.19,-207.98 334.19,-198.71 334.19,-190.11"/>
<polygon fill="black" stroke="black" points="337.69,-190.1 334.19,-180.1 330.69,-190.1 337.69,-190.1"/>
</g>
<!-- Updated Persona Embeddings -->
<g id="node9" class="node">
<title>Updated Persona Embeddings</title>
<ellipse fill="none" stroke="black" cx="334.19" cy="-90" rx="151.37" ry="18"/>
<text text-anchor="middle" x="334.19" y="-86.3" font-family="Times,serif" font-size="14.00">Updated Persona Embeddings</text>
</g>
<!-- Federated Training Loop&#45;&gt;Updated Persona Embeddings -->
<g id="edge8" class="edge">
<title>Federated Training Loop&#45;&gt;Updated Persona Embeddings</title>
<path fill="none" stroke="black" d="M334.19,-143.7C334.19,-135.98 334.19,-126.71 334.19,-118.11"/>
<polygon fill="black" stroke="black" points="337.69,-118.1 334.19,-108.1 330.69,-118.1 337.69,-118.1"/>
</g>
<!-- Diffused Back to Agent Mesh -->
<g id="node10" class="node">
<title>Diffused Back to Agent Mesh</title>
<ellipse fill="none" stroke="black" cx="334.19" cy="-18" rx="145.67" ry="18"/>
<text text-anchor="middle" x="334.19" y="-14.3" font-family="Times,serif" font-size="14.00">Diffused Back to Agent Mesh</text>
</g>
<!-- Updated Persona Embeddings&#45;&gt;Diffused Back to Agent Mesh -->
<g id="edge9" class="edge">
<title>Updated Persona Embeddings&#45;&gt;Diffused Back to Agent Mesh</title>
<path fill="none" stroke="black" d="M334.19,-71.7C334.19,-63.98 334.19,-54.71 334.19,-46.11"/>
<polygon fill="black" stroke="black" points="337.69,-46.1 334.19,-36.1 330.69,-46.1 337.69,-46.1"/>
</g>
</g>
</svg>
